<?xml version="1.0" encoding="utf-8"?>
<svg xmlns="http://www.w3.org/2000/svg" viewBox="0 0 100 100" width="100" height="100">
  <path fill="#ceccbe" d="M34.461 72.075L34.461 21.075 49.461 24.997 49.461 76.075" />
  <path fill="#1f212b" d="M49.461,76.575c-0.276,0-0.5-0.224-0.5-0.5V25.383l-14-3.661v50.353c0,0.276-0.224,0.5-0.5,0.5s-0.5-0.224-0.5-0.5v-51c0-0.155,0.072-0.301,0.194-0.396c0.123-0.096,0.283-0.13,0.432-0.088l15,3.923c0.22,0.058,0.374,0.256,0.374,0.483v51.077C49.961,76.351,49.737,76.575,49.461,76.575z" />
  <path fill="#fefdef" d="M49.461 26.075L49.461 76.991 65.461 73.069 65.461 22.075" />
  <path fill="#1f212b" d="M49.461,77.492c-0.111,0-0.22-0.037-0.309-0.106c-0.121-0.095-0.191-0.24-0.191-0.394V26.075c0-0.276,0.224-0.5,0.5-0.5s0.5,0.224,0.5,0.5v50.279l15-3.678V22.075c0-0.276,0.224-0.5,0.5-0.5s0.5,0.224,0.5,0.5v50.994c0,0.23-0.157,0.431-0.381,0.485l-16,3.923C49.54,77.487,49.5,77.492,49.461,77.492z" />
  <path fill="#fefdef" d="M34.228 73.083L18.961 77.083 18.961 24.917 34.228 20.917" />
  <path fill="#1f212b" d="M18.961,78.084c-0.219,0-0.434-0.072-0.611-0.208c-0.246-0.189-0.389-0.482-0.389-0.792V24.917c0-0.455,0.307-0.853,0.747-0.968l15.268-4c0.537-0.135,1.081,0.181,1.221,0.714c0.14,0.535-0.18,1.081-0.714,1.222l-14.521,3.804v50.1l14.014-3.672c0.537-0.136,1.081,0.181,1.221,0.714c0.14,0.535-0.18,1.081-0.714,1.222l-15.268,4C19.131,78.073,19.045,78.084,18.961,78.084z" />
  <path fill="#fefdef" d="M34.683 73.083L49.95 77.083" />
  <path fill="#1f212b" d="M49.95,78.084c-0.083,0-0.169-0.011-0.254-0.032l-15.268-4c-0.534-0.141-0.854-0.687-0.714-1.222c0.14-0.533,0.685-0.85,1.221-0.714l15.268,4c0.534,0.141,0.854,0.687,0.714,1.222C50.799,77.787,50.394,78.084,49.95,78.084z" />
  <path fill="#fefdef" d="M49.95 24.917L34.683 20.917" />
  <path fill="#1f212b" d="M49.95,25.917c-0.083,0-0.169-0.011-0.254-0.032l-15.268-4c-0.534-0.141-0.854-0.687-0.714-1.222c0.14-0.533,0.685-0.85,1.221-0.714l15.268,4c0.534,0.141,0.854,0.687,0.714,1.222C50.799,25.62,50.394,25.917,49.95,25.917z" />
  <path fill="#fefdef" d="M50.138 24.917L65.405 20.917" />
  <path fill="#1f212b" d="M50.137,25.917c-0.444,0-0.849-0.297-0.967-0.746c-0.14-0.535,0.18-1.081,0.714-1.222l15.268-4c0.538-0.135,1.082,0.181,1.221,0.714c0.14,0.535-0.18,1.081-0.714,1.222l-15.268,4C50.306,25.906,50.221,25.917,50.137,25.917z" />
  <path fill="#fefdef" d="M65.405 73.083L50.138 77.083" />
  <path fill="#1f212b" d="M50.137,78.084c-0.444,0-0.849-0.297-0.967-0.746c-0.14-0.535,0.18-1.081,0.714-1.222l15.268-4c0.538-0.136,1.082,0.181,1.221,0.714c0.14,0.535-0.18,1.081-0.714,1.222l-15.268,4C50.306,78.073,50.221,78.084,50.137,78.084z" />
  <path fill="#ceccbe" d="M65.405 20.917L80.961 24.917 80.961 77.083 65.405 73.083" />
  <path fill="#1f212b" d="M80.961,78.084c-0.083,0-0.167-0.011-0.249-0.031l-15.555-4c-0.535-0.138-0.857-0.683-0.719-1.218c0.137-0.534,0.682-0.858,1.217-0.72l14.306,3.679V25.692l-14.804-3.807c-0.535-0.138-0.857-0.683-0.719-1.218c0.137-0.534,0.682-0.855,1.217-0.72l15.555,4c0.442,0.114,0.751,0.513,0.751,0.969v52.167c0,0.31-0.143,0.601-0.387,0.79C81.396,78.011,81.18,78.084,80.961,78.084z" />
  <path fill="#1f212b" d="M78.461 39.575c-.276 0-.5-.224-.5-.5v-3c0-.276.224-.5.5-.5s.5.224.5.5v3C78.961 39.351 78.737 39.575 78.461 39.575zM78.461 33.575c-.276 0-.5-.224-.5-.5v-5.369l-6.858-1.751c-.268-.068-.429-.341-.361-.608.068-.268.338-.432.608-.36l7.235 1.847c.222.057.376.256.376.484v5.758C78.961 33.351 78.737 33.575 78.461 33.575zM22.461 73.575c-.276 0-.5-.224-.5-.5v-3c0-.276.224-.5.5-.5s.5.224.5.5v3C22.961 73.351 22.737 73.575 22.461 73.575zM22.461 68.575c-.276 0-.5-.224-.5-.5v-9c0-.276.224-.5.5-.5s.5.224.5.5v9C22.961 68.351 22.737 68.575 22.461 68.575zM65.461 73.575c-.276 0-.5-.224-.5-.5v-51c0-.276.224-.5.5-.5s.5.224.5.5v51C65.961 73.351 65.737 73.575 65.461 73.575zM52.461 42.575c-.276 0-.5-.224-.5-.5v-3c0-.276.224-.5.5-.5s.5.224.5.5v3C52.961 42.351 52.737 42.575 52.461 42.575zM52.461 37.575c-.276 0-.5-.224-.5-.5v-9c0-.276.224-.5.5-.5s.5.224.5.5v9C52.961 37.351 52.737 37.575 52.461 37.575z" />
</svg>